# Blender 3.6.2
# www.blender.org
mtllib hex_crystal_90_45_big.mtl
o Cylinder.001
v -0.623255 0.000336 -0.625214
v 2.028999 -0.001093 2.035376
v -0.352918 -0.499810 -0.354027
v 1.758394 -0.500947 1.763920
v -0.659517 -0.249810 -0.048254
v 1.451794 -0.250948 2.069693
v -0.659383 0.250190 -0.048119
v 1.451929 0.249052 2.069827
v -0.352649 0.500190 -0.353758
v 1.758662 0.499052 1.764189
v -0.046050 0.250190 -0.659531
v 2.065262 0.249052 1.458416
v -0.046184 -0.249810 -0.659665
v 2.065127 -0.250948 1.458281
vn -0.3543 -0.8660 0.3528
vn -0.7082 -0.0000 0.7060
vn -0.3539 0.8660 0.3532
vn 0.3543 0.8660 -0.3528
vn 0.7082 -0.0000 -0.7060
vn 0.3539 -0.8660 -0.3532
vn 0.7060 -0.0004 0.7082
vn 0.3860 0.8373 0.3873
vn -0.3856 0.8377 -0.3868
vn -0.7636 -0.5736 -0.2967
vn 0.2940 -0.5741 0.7642
vn -0.9980 0.0003 -0.0626
vn 0.0595 -0.0003 0.9982
vn -0.7632 0.5741 -0.2964
vn 0.2943 0.5736 0.7645
vn -0.2940 0.5741 -0.7642
vn 0.7636 0.5736 0.2967
vn -0.0595 0.0003 -0.9982
vn 0.9980 -0.0003 0.0626
vn -0.2943 -0.5736 -0.7645
vn 0.7632 -0.5741 0.2964
vt 0.499900 0.000000
vt 0.499900 1.000000
vt 0.333200 1.000000
vt 0.333200 0.000000
vt 0.166500 1.000000
vt 0.166500 0.000000
vt 0.000000 1.000000
vt 0.000000 0.000000
vt 1.000000 -0.000000
vt 1.000000 1.000000
vt 0.833300 1.000000
vt 0.833300 -0.000000
vt 0.666600 1.000000
vt 0.666600 -0.000000
vt 0.500000 0.500000
vt 0.931300 0.749000
vt 0.500000 0.998000
vt 0.500000 0.002000
vt 0.931300 0.251000
vt 0.068700 0.749000
vt 0.068700 0.251000
s 0
usemtl Side_Mat.003
f 3/1/1 4/2/1 6/3/1 5/4/1
f 5/4/2 6/3/2 8/5/2 7/6/2
f 7/6/3 8/5/3 10/7/3 9/8/3
f 9/9/4 10/10/4 12/11/4 11/12/4
f 11/12/5 12/11/5 14/13/5 13/14/5
f 13/14/6 14/13/6 4/2/6 3/1/6
f 10/8/7 8/8/7 12/8/7
f 12/8/8 8/8/8 2/8/8
f 2/8/1 8/8/1 14/8/1
f 14/8/7 8/8/7 6/8/7
f 14/8/9 6/8/9 2/8/9
f 11/8/9 1/8/9 7/8/9
f 7/8/1 1/8/1 13/8/1
f 13/8/8 1/8/8 5/8/8
f 9/8/7 7/8/7 11/8/7
f 11/8/7 7/8/7 13/8/7
f 13/8/7 7/8/7 5/8/7
f 13/8/7 5/8/7 3/8/7
usemtl End_Mat.003
f 1/15/10 3/16/10 5/17/10
f 2/15/11 6/18/11 4/19/11
f 1/15/12 5/17/12 7/20/12
f 2/15/13 8/21/13 6/18/13
f 1/15/14 7/20/14 9/21/14
f 2/15/15 10/20/15 8/21/15
f 1/15/16 9/21/16 11/18/16
f 2/15/17 12/17/17 10/20/17
f 1/15/18 11/18/18 13/19/18
f 2/15/19 14/16/19 12/17/19
f 1/15/20 13/19/20 3/16/20
f 2/15/21 4/19/21 14/16/21
