# Blender 3.6.2
# www.blender.org
mtllib hex_crystal_30_45_small.mtl
o Cylinder
v 0.038081 -0.577619 0.038081
v -0.335638 0.385469 -0.335638
v -0.099509 -0.479405 0.099449
v -0.397007 0.287255 -0.198048
v -0.124380 -0.543495 -0.024900
v -0.421877 0.223164 -0.322397
v -0.024900 -0.543495 -0.124380
v -0.322397 0.223164 -0.421877
v 0.099449 -0.479405 -0.099509
v -0.198048 0.287255 -0.397007
v 0.124319 -0.415315 0.024839
v -0.173178 0.351345 -0.272658
v 0.024839 -0.415315 0.124319
v -0.272658 0.351345 -0.173178
vn -0.9213 -0.2383 0.3071
vn -0.6199 -0.4811 -0.6199
vn 0.3071 -0.2383 -0.9213
vn 0.9213 0.2383 -0.3071
vn 0.6199 0.4811 0.6199
vn -0.3071 0.2383 0.9213
vn -0.3671 0.8547 -0.3671
vn 0.4033 0.4548 -0.7940
vn 0.7940 -0.4548 -0.4033
vn -0.3554 -0.8000 0.4834
vn -0.8835 0.4643 -0.0626
vn -0.1480 -0.9778 -0.1480
vn -0.6739 0.3031 -0.6739
vn 0.4834 -0.8000 -0.3554
vn -0.0626 0.4643 -0.8835
vn 0.8835 -0.4643 0.0626
vn 0.3554 0.8000 -0.4834
vn 0.6739 -0.3031 0.6739
vn 0.1480 0.9778 0.1480
vn 0.0626 -0.4643 0.8835
vn -0.4834 0.8000 0.3554
vt 0.499900 0.000000
vt 0.499900 1.000000
vt 0.333200 1.000000
vt 0.333200 0.000000
vt 0.166500 1.000000
vt 0.166500 0.000000
vt 0.000000 1.000000
vt 0.000000 0.000000
vt 1.000000 -0.000000
vt 1.000000 1.000000
vt 0.833300 1.000000
vt 0.833300 -0.000000
vt 0.666600 1.000000
vt 0.666600 -0.000000
vt 0.500000 0.500000
vt 0.931300 0.749000
vt 0.500000 0.998000
vt 0.500000 0.002000
vt 0.931300 0.251000
vt 0.068700 0.749000
vt 0.068700 0.251000
s 0
usemtl Side_Mat.002
f 3/1/1 4/2/1 6/3/1 5/4/1
f 5/4/2 6/3/2 8/5/2 7/6/2
f 7/6/3 8/5/3 10/7/3 9/8/3
f 9/9/4 10/10/4 12/11/4 11/12/4
f 11/12/5 12/11/5 14/13/5 13/14/5
f 13/14/6 14/13/6 4/2/6 3/1/6
f 10/8/7 8/8/7 12/8/7
f 12/8/8 8/8/8 2/8/8
f 2/8/1 8/8/1 14/8/1
f 14/8/7 8/8/7 6/8/7
f 14/8/9 6/8/9 2/8/9
f 11/8/9 1/8/9 7/8/9
f 7/8/1 1/8/1 13/8/1
f 13/8/8 1/8/8 5/8/8
f 9/8/7 7/8/7 11/8/7
f 11/8/7 7/8/7 13/8/7
f 13/8/7 7/8/7 5/8/7
f 13/8/7 5/8/7 3/8/7
usemtl End_Mat.002
f 1/15/10 3/16/10 5/17/10
f 2/15/11 6/18/11 4/19/11
f 1/15/12 5/17/12 7/20/12
f 2/15/13 8/21/13 6/18/13
f 1/15/14 7/20/14 9/21/14
f 2/15/15 10/20/15 8/21/15
f 1/15/16 9/21/16 11/18/16
f 2/15/17 12/17/17 10/20/17
f 1/15/18 11/18/18 13/19/18
f 2/15/19 14/16/19 12/17/19
f 1/15/20 13/19/20 3/16/20
f 2/15/21 4/19/21 14/16/21
