# Blender 3.6.2
# www.blender.org
mtllib hex_crystal_90_45_med.mtl
o Cylinder
v -0.486270 -0.216131 -0.491484
v 0.834813 -0.203946 0.843765
v -0.350408 -0.464883 -0.354165
v 0.701233 -0.455183 0.708752
v -0.504885 -0.339886 -0.202468
v 0.546755 -0.330186 0.860450
v -0.506026 -0.089891 -0.203621
v 0.545614 -0.080191 0.859297
v -0.352689 0.035106 -0.356471
v 0.698951 0.044806 0.706446
v -0.198212 -0.089891 -0.508169
v 0.853429 -0.080191 0.554748
v -0.197071 -0.339886 -0.507016
v 0.854569 -0.330186 0.555901
vn -0.3515 -0.8660 0.3557
vn -0.7109 -0.0000 0.7033
vn -0.3594 0.8660 0.3477
vn 0.3515 0.8660 -0.3557
vn 0.7109 -0.0000 -0.7033
vn 0.3594 -0.8660 -0.3477
vn 0.7033 0.0065 0.7109
vn 0.3805 0.8410 0.3846
vn -0.3882 0.8339 -0.3923
vn -0.7596 -0.5787 -0.2967
vn 0.2938 -0.5690 0.7681
vn -0.9978 -0.0049 -0.0663
vn 0.0557 0.0049 0.9984
vn -0.7649 0.5690 -0.3020
vn 0.2886 0.5787 0.7628
vn -0.2938 0.5690 -0.7681
vn 0.7596 0.5787 0.2967
vn -0.0557 -0.0049 -0.9984
vn 0.9978 0.0049 0.0663
vn -0.2886 -0.5787 -0.7628
vn 0.7649 -0.5690 0.3020
vt 0.499900 0.000000
vt 0.499900 1.000000
vt 0.333200 1.000000
vt 0.333200 0.000000
vt 0.166500 1.000000
vt 0.166500 0.000000
vt 0.000000 1.000000
vt 0.000000 0.000000
vt 1.000000 -0.000000
vt 1.000000 1.000000
vt 0.833300 1.000000
vt 0.833300 -0.000000
vt 0.666600 1.000000
vt 0.666600 -0.000000
vt 0.500000 0.500000
vt 0.931300 0.749000
vt 0.500000 0.998000
vt 0.500000 0.002000
vt 0.931300 0.251000
vt 0.068700 0.749000
vt 0.068700 0.251000
s 0
usemtl Side_Mat.004
f 3/1/1 4/2/1 6/3/1 5/4/1
f 5/4/2 6/3/2 8/5/2 7/6/2
f 7/6/3 8/5/3 10/7/3 9/8/3
f 9/9/4 10/10/4 12/11/4 11/12/4
f 11/12/5 12/11/5 14/13/5 13/14/5
f 13/14/6 14/13/6 4/2/6 3/1/6
f 10/8/7 8/8/7 12/8/7
f 12/8/8 8/8/8 2/8/8
f 2/8/1 8/8/1 14/8/1
f 14/8/7 8/8/7 6/8/7
f 14/8/9 6/8/9 2/8/9
f 11/8/9 1/8/9 7/8/9
f 7/8/1 1/8/1 13/8/1
f 13/8/8 1/8/8 5/8/8
f 9/8/7 7/8/7 11/8/7
f 11/8/7 7/8/7 13/8/7
f 13/8/7 7/8/7 5/8/7
f 13/8/7 5/8/7 3/8/7
usemtl End_Mat.004
f 1/15/10 3/16/10 5/17/10
f 2/15/11 6/18/11 4/19/11
f 1/15/12 5/17/12 7/20/12
f 2/15/13 8/21/13 6/18/13
f 1/15/14 7/20/14 9/21/14
f 2/15/15 10/20/15 8/21/15
f 1/15/16 9/21/16 11/18/16
f 2/15/17 12/17/17 10/20/17
f 1/15/18 11/18/18 13/19/18
f 2/15/19 14/16/19 12/17/19
f 1/15/20 13/19/20 3/16/20
f 2/15/21 4/19/21 14/16/21
